<svg width="28" height="28" viewBox="0 0 28 28" fill="none" xmlns="http://www.w3.org/2000/svg">
<path d="M13.999 19.25C18.8315 19.25 22.749 15.3325 22.749 10.5C22.749 5.66751 18.8315 1.75 13.999 1.75C9.16653 1.75 5.24902 5.66751 5.24902 10.5C5.24902 15.3325 9.16653 19.25 13.999 19.25Z" stroke="#F99D1C" stroke-width="1.5" stroke-linecap="round" stroke-linejoin="round"/>
<path d="M13.999 15.75C16.8985 15.75 19.249 13.3995 19.249 10.5C19.249 7.60051 16.8985 5.25 13.999 5.25C11.0995 5.25 8.74902 7.60051 8.74902 10.5C8.74902 13.3995 11.0995 15.75 13.999 15.75Z" stroke="#F99D1C" stroke-width="1.5" stroke-linecap="round" stroke-linejoin="round"/>
<path d="M19.25 17.499V26.2496L13.9992 23.6246L8.75 26.2496V17.4998" stroke="#F99D1C" stroke-width="1.5" stroke-linecap="round" stroke-linejoin="round"/>
</svg>
