<?xml version="1.0" standalone="no"?>
<!DOCTYPE svg PUBLIC "-//W3C//DTD SVG 20010904//EN"
 "http://www.w3.org/TR/2001/REC-SVG-20010904/DTD/svg10.dtd">
<svg version="1.0" xmlns="http://www.w3.org/2000/svg"
 width="130.000000pt" height="130.000000pt" viewBox="0 0 130.000000 130.000000"
 preserveAspectRatio="xMidYMid meet">
<metadata>
Created by potrace 1.14, written by Peter Selinger 2001-2017
</metadata>
<g transform="translate(0.000000,130.000000) scale(0.100000,-0.100000)"
fill="#000000" stroke="none">
<path d="M139 1102 c-53 -35 -110 -96 -128 -139 -16 -38 -8 -92 17 -123 17
-21 17 -20 64 45 57 78 125 125 180 125 103 0 179 -154 319 -654 l52 -186 76
0 76 0 58 108 c32 59 81 163 108 232 28 69 53 127 55 129 1 2 16 -6 33 -18 47
-34 113 -61 149 -61 23 0 41 9 62 30 17 17 30 34 30 38 0 5 -26 13 -57 20 -61
13 -173 77 -173 99 0 7 9 52 21 100 11 48 28 127 38 176 l18 87 -22 0 c-79 0
-183 -73 -221 -154 -36 -77 -31 -177 9 -218 14 -13 11 -27 -22 -124 -40 -117
-81 -212 -120 -283 l-25 -45 -12 70 c-40 234 -162 581 -243 692 -52 70 -80 82
-197 82 -93 0 -103 -2 -145 -28z"/>
</g>
</svg>
